<svg width="16" height="15" viewBox="0 0 16 15" fill="none" xmlns="http://www.w3.org/2000/svg"><path d="M1.822 6.27c.516 0 .982-.29 1.182-.735.824-1.835 2.763-3.128 5.024-3.128 1.245 0 2.387.399 3.303 1.06l-.718.104a.541.541 0 0 0-.469.447c-.033.23.1.452.326.547l3.946 1.658a.595.595 0 0 0 .533-.037.517.517 0 0 0 .257-.437l.02-4.062a.528.528 0 0 0-.396-.503.58.58 0 0 0-.63.21l-.543.764C12.207.824 10.219 0 8.027 0 4.706 0 1.849 1.895.63 4.59c-.17.372-.127.8.113 1.138.24.338.644.541 1.079.541zM15.312 9.272a1.32 1.32 0 0 0-1.078-.542c-.517 0-.983.29-1.183.735-.824 1.835-2.763 3.128-5.023 3.128a5.625 5.625 0 0 1-3.304-1.06l.718-.104a.542.542 0 0 0 .469-.447.517.517 0 0 0-.325-.547L1.639 8.777a.595.595 0 0 0-.533.037.517.517 0 0 0-.257.437l-.02 4.062a.528.528 0 0 0 .396.503.58.58 0 0 0 .63-.21l.544-.764C3.849 14.175 5.836 15 8.028 15c3.322 0 6.179-1.895 7.397-4.59.17-.373.127-.8-.113-1.138z" fill="#fff"/></svg>