<svg width="42" height="50" viewBox="0 0 42 50" fill="none" xmlns="http://www.w3.org/2000/svg"><path d="M20.99 0C9.94 0 .947 8.994.947 20.042c0 1.258.115 2.526.356 3.763.01.073.052.294.136.67a19.74 19.74 0 0 0 1.342 3.953C4.942 33.51 9.69 41.32 20.109 49.685a1.423 1.423 0 0 0 1.782 0C32.3 41.322 37.059 33.511 39.218 28.428a19.52 19.52 0 0 0 1.478-4.623c.23-1.237.356-2.505.356-3.763C41.032 8.994 32.038 0 20.99 0zm16.897 23.312c0 .021-.01.042-.01.063-.011.053-.043.21-.095.451v.021a16.647 16.647 0 0 1-1.164 3.417c-.01.01-.01.032-.02.042-1.96 4.644-6.258 11.73-15.609 19.455C11.64 39.036 7.342 31.95 5.381 27.306c-.01-.01-.01-.031-.02-.042a17.752 17.752 0 0 1-1.164-3.417v-.021c-.063-.241-.084-.398-.094-.45 0-.022-.01-.043-.01-.074-.21-1.08-.315-2.17-.315-3.27 0-9.487 7.725-17.212 17.211-17.212 9.487 0 17.212 7.725 17.212 17.211a17.06 17.06 0 0 1-.314 3.281z" fill="#DADAE4"/><path d="M20.99 7.536c-7.013 0-12.726 5.713-12.726 12.726 0 7.012 5.713 12.725 12.726 12.725 7.012 0 12.725-5.713 12.725-12.726 0-7.012-5.713-12.725-12.726-12.725zm0 22.62c-5.462 0-9.896-4.444-9.896-9.894 0-5.451 4.445-9.896 9.896-9.896 5.45 0 9.895 4.445 9.895 9.896 0 5.45-4.434 9.895-9.896 9.895z" fill="#DADAE4"/></svg>