<svg width="209" height="236" viewBox="0 0 209 236" fill="none" xmlns="http://www.w3.org/2000/svg"><path d="M137.359 7.935a7.631 7.631 0 0 1 2.365 6.334v30.524a6.752 6.752 0 0 1-2.06 3.816 7.9 7.9 0 0 1-4.197 1.679h-11.18l1.832 1.259a43.292 43.292 0 0 1 5.303 4.464 37.215 37.215 0 0 1 6.601 8.737c1.783 3.1 3.07 6.461 3.816 9.959a73.307 73.307 0 0 1 2.022 17.513 59.49 59.49 0 0 1-5.99 27.09 38.734 38.734 0 0 1-18.811 17.819 46.887 46.887 0 0 1 17.933 18.543 55.25 55.25 0 0 1 6.639 27.586 57.24 57.24 0 0 1-4.502 24.496 38.154 38.154 0 0 1-12.172 15.262 49.908 49.908 0 0 1-19.077 8.814 128.709 128.709 0 0 1-26.175 3.51H5.8a7.628 7.628 0 0 1-3.587-1.755 6.106 6.106 0 0 1-1.946-4.121v-32.508a6.409 6.409 0 0 1 1.717-4.617 6.531 6.531 0 0 1 5.266-1.831h67.496a39.878 39.878 0 0 0 21.94-6.219 18.74 18.74 0 0 0 7.172-14.232 26.707 26.707 0 0 0-2.403-13.202c-1.726-3-4.066-5.6-6.868-7.631a36.177 36.177 0 0 0-9.196-4.502 47.103 47.103 0 0 0-12.21-1.717H5.8a7.635 7.635 0 0 1-3.816-1.87A6.18 6.18 0 0 1 0 137.32v-33.043a6.983 6.983 0 0 1 1.984-4.35 6.907 6.907 0 0 1 4.617-1.946h66.81a62.34 62.34 0 0 0 9.157-.724 40.406 40.406 0 0 0 8.737-2.404 19.077 19.077 0 0 0 8.776-6.64 20.686 20.686 0 0 0 3.816-11.446c.52-4.44-.389-8.931-2.595-12.82a20.145 20.145 0 0 0-7.745-7.936 49.833 49.833 0 0 0-11.447-4.312 45.788 45.788 0 0 0-13.01-1.182H5.722a7.135 7.135 0 0 1-4.006-2.137A6.067 6.067 0 0 1 .153 44.83V12.018a7.631 7.631 0 0 1 1.831-3.816A9.462 9.462 0 0 1 6.03 6.41h126.98a6.335 6.335 0 0 1 4.35 1.526zM208.48 28.464a28.466 28.466 0 0 1-34.031 27.914 28.467 28.467 0 0 1-22.355-22.385A28.466 28.466 0 0 1 180.054 0a28.389 28.389 0 0 1 28.426 28.464z" fill="#F6F6F7"/></svg>