<svg width="33" height="32" viewBox="0 0 33 32" fill="none" xmlns="http://www.w3.org/2000/svg"><g clip-path="url(#a)" fill="#000"><path d="M24.93 12.666H6.263c-1.102 0-2 .897-2 2V16c0 4.758 2.628 9.073 6.858 11.26a.668.668 0 0 0 .612-1.185A11.305 11.305 0 0 1 5.597 16v-1.333c0-.368.298-.667.666-.667H24.93c.368 0 .667.299.667.667v1.333a11.3 11.3 0 0 1-6.137 10.074.668.668 0 0 0 .612 1.185A12.63 12.63 0 0 0 26.93 16v-1.333c0-1.103-.897-2-2-2z"/><path d="M30.881 26.41a.668.668 0 0 0-.616-.412H.931a.668.668 0 0 0-.472 1.14l1.495 1.495A4.639 4.639 0 0 0 5.254 30H25.94a4.647 4.647 0 0 0 3.302-1.367l1.495-1.496a.665.665 0 0 0 .144-.727zM28.3 27.69c-.63.63-1.468.977-2.358.977H5.254c-.89 0-1.728-.347-2.357-.976l-.358-.358h26.117l-.357.358zM30.975 15.814c-1.796-1.155-4.666.099-4.987.244a.668.668 0 0 0 .553 1.215c.643-.292 2.704-.984 3.712-.335.455.292.677.859.677 1.728 0 2.67-5.384 4.283-7.462 4.68l-.472.094a.666.666 0 1 0 .257 1.306l.468-.092c.35-.066 8.543-1.673 8.543-5.988 0-1.341-.435-2.3-1.29-2.852zM20.788 7.082c1.084-1.355 1.084-3.476 0-4.83a.666.666 0 1 0-1.041.833c.686.857.686 2.306-.002 3.166-1.085 1.355-1.085 3.477 0 4.831a.664.664 0 0 0 .937.104.666.666 0 0 0 .104-.937c-.688-.857-.688-2.307.002-3.167zM16.782 7.082c1.085-1.355 1.085-3.476 0-4.83a.666.666 0 1 0-1.041.833c.688.857.688 2.306-.002 3.166-1.084 1.355-1.084 3.477 0 4.831a.664.664 0 0 0 .938.104.666.666 0 0 0 .104-.937c-.687-.857-.687-2.307.001-3.167zM12.787 7.083c1.084-1.354 1.084-3.476 0-4.83a.667.667 0 0 0-1.041.832c.687.857.687 2.306-.001 3.166-1.086 1.355-1.086 3.476 0 4.831a.664.664 0 0 0 .937.106.666.666 0 0 0 .104-.938c-.688-.859-.688-2.307.001-3.167z"/></g><defs><clipPath id="a"><path fill="#fff" transform="translate(.264)" d="M0 0h32v32H0z"/></clipPath></defs></svg>