<svg version="1.0" xmlns="http://www.w3.org/2000/svg"
 width="512.000000pt" height="342.000000pt" viewBox="0 0 512.000000 342.000000"
 preserveAspectRatio="xMidYMid meet">
<metadata>
Created by potrace 1.15, written by Peter Selinger 2001-2017
</metadata>
<g transform="translate(0.000000,342.000000) scale(0.100000,-0.100000)"
fill="#000000" stroke="none">
<path d="M2409 3410 c-508 -46 -964 -335 -1215 -771 l-44 -76 -70 -12 c-251
-41 -520 -181 -705 -366 -500 -499 -498 -1305 4 -1805 186 -185 410 -303 676
-357 85 -17 181 -18 1600 -18 1625 0 1570 -2 1735 52 300 97 547 332 656 623
55 146 67 216 67 390 0 136 -3 167 -26 255 -103 384 -407 688 -787 784 -46 11
-94 21 -108 21 -34 0 -62 18 -62 40 0 44 -83 269 -140 379 -217 420 -612 725
-1070 826 -180 40 -332 50 -511 35z m686 -1380 l530 -530 -317 0 -318 0 -2
-427 -3 -428 -425 0 -425 0 -3 428 -2 427 -318 0 -317 0 530 530 c291 292 532
530 535 530 3 0 244 -238 535 -530z"/>
<path d="M2492 1830 c-94 -57 -94 -183 0 -240 117 -71 259 71 188 188 -42 68
-124 91 -188 52z"/>
</g>
</svg>
