<svg width="19" height="20" viewBox="0 0 19 20" fill="#000" xmlns="http://www.w3.org/2000/svg">
<path d="M9.4 19.5996C7.52502 19.5996 6 18.1045 6 16.2663C6 15.8983 6.30464 15.5996 6.68 15.5996C7.05536 15.5996 7.36 15.8983 7.36 16.2663C7.36 17.3695 8.27475 18.2663 9.4 18.2663C10.5251 18.2663 11.44 17.3695 11.44 16.2663C11.44 15.8983 11.7446 15.5996 12.12 15.5996C12.4954 15.5996 12.8 15.8983 12.8 16.2663C12.8 18.1045 11.275 19.5996 9.4 19.5996Z"/>
<path d="M17.1551 16.8H1.64511C0.737872 16.8 0 16.0674 0 15.1667C0 14.6887 0.20964 14.2362 0.575393 13.9253C2.00501 12.726 2.81999 10.9826 2.81999 9.13555V6.53328C2.81999 2.93074 5.77165 0 9.40009 0C13.0283 0 15.98 2.93074 15.98 6.53328V9.13555C15.98 10.9826 16.795 12.726 18.2153 13.9188C18.5904 14.2362 18.8 14.6887 18.8 15.1667C18.8 16.0674 18.0621 16.8 17.1551 16.8ZM9.40009 1.4C6.54894 1.4 4.22999 3.70251 4.22999 6.53328V9.13555C4.22999 11.395 3.23273 13.5287 1.49468 14.9875C1.4618 15.0155 1.41 15.0734 1.41 15.1667C1.41 15.2935 1.51723 15.4 1.64511 15.4H17.1551C17.2828 15.4 17.39 15.2935 17.39 15.1667C17.39 15.0734 17.3384 15.0155 17.3072 14.9893C15.5673 13.5287 14.57 11.395 14.57 9.13555V6.53328C14.57 3.70251 12.2511 1.4 9.40009 1.4Z"/>
</svg>
