<svg width="20" height="22" viewBox="0 0 20 22" fill="#000" xmlns="http://www.w3.org/2000/svg">
<circle cx="15.4" cy="4.5998" r="3.8" fill="#FF9509"/>
<path d="M9.19985 22C7.21563 22 5.59985 20.5049 5.59985 18.6667C5.59985 18.2987 5.92241 18 6.31985 18C6.71729 18 7.03985 18.2987 7.03985 18.6667C7.03985 19.7699 8.00946 20.6667 9.19985 20.6667C10.3902 20.6667 11.3599 19.7699 11.3599 18.6667C11.3599 18.2987 11.6824 18 12.0799 18C12.4773 18 12.7999 18.2987 12.7999 18.6667C12.7999 20.5049 11.1842 22 9.19985 22Z"/>
<path d="M16.7898 19.1998H1.60982C0.722051 19.1998 -0.00012207 18.4846 -0.00012207 17.6054C-0.00012207 17.1388 0.205058 16.697 0.56286 16.3936C0.585938 16.3735 0.610701 16.3554 0.636475 16.3388C1.98699 15.1717 2.75987 13.4926 2.75987 11.7195V9.17753C2.75987 5.66076 5.64957 2.7998 9.19979 2.7998C9.34702 2.7998 9.50622 2.80247 9.65345 2.82716C10.0296 2.88906 10.2836 3.24174 10.221 3.61343C10.1585 3.98513 9.79596 4.23671 9.42704 4.17465C9.35343 4.1628 9.27257 4.16647 9.19979 4.16647C6.41049 4.16647 4.13986 6.41416 4.13986 9.17753V11.7195C4.13986 13.9208 3.16551 16.0037 1.46916 17.4331C1.45534 17.4441 1.44338 17.4541 1.42856 17.4641C1.40379 17.4951 1.37987 17.5425 1.37987 17.6054C1.37987 17.7292 1.48482 17.8331 1.60982 17.8331H16.7898C16.9149 17.8331 17.0199 17.7292 17.0199 17.6054C17.0199 17.5415 16.996 17.4951 16.9702 17.4641C16.9564 17.4541 16.9444 17.4441 16.9306 17.4331C15.2332 16.0027 14.2599 13.9208 14.2599 11.7195V10.7265C14.2599 10.3493 14.569 10.0432 14.9499 10.0432C15.3308 10.0432 15.6399 10.3493 15.6399 10.7265V11.7195C15.6399 13.4936 16.4136 15.1735 17.766 16.3417C17.7907 16.358 17.8147 16.3754 17.8367 16.3946C18.1947 16.697 18.3999 17.1388 18.3999 17.6054C18.3999 18.4846 17.6777 19.1998 16.7898 19.1998Z" />
<path d="M15.6 9.2C13.1738 9.2 11.2 7.13656 11.2 4.60008C11.2 2.06361 13.1738 0 15.6 0C18.0262 0 20 2.06361 20 4.60008C20 7.13656 18.0262 9.2 15.6 9.2ZM15.6 1.38001C13.9015 1.38001 12.52 2.82437 12.52 4.60008C12.52 6.37563 13.9015 7.81999 15.6 7.81999C17.2984 7.81999 18.6799 6.37563 18.6799 4.60008C18.6799 2.82437 17.2984 1.38001 15.6 1.38001Z"/>
</svg>
