<svg width="235" height="176" viewBox="0 0 235 176" fill="none" xmlns="http://www.w3.org/2000/svg"><path d="M194.115 25H40.093C31.22 25 24 32.22 24 41.095v92.81C24 142.78 31.22 150 40.093 150h154.022c8.874 0 16.094-7.22 16.094-16.095v-92.81c0-8.875-7.22-16.095-16.094-16.095zm10.564 108.905c0 5.825-4.74 10.564-10.564 10.564H40.093c-5.823 0-10.562-4.739-10.562-10.564v-92.81c0-5.825 4.739-10.564 10.562-10.564h154.022c5.824 0 10.564 4.739 10.564 10.564v92.81z" fill="#DADAE4"/><path d="M106.78 47.122H42.622a2.766 2.766 0 0 0-2.766 2.766v17.699c0 1.527 2.633 0 2.633 0s2.899 1.527 2.899 0V52.653h58.628v67.478H45.388V67.587c0-1.528-2.9 0-2.9 0s-2.632-1.528-2.632 0v55.309a2.767 2.767 0 0 0 2.766 2.766h64.158a2.767 2.767 0 0 0 2.767-2.766V49.888a2.766 2.766 0 0 0-2.767-2.766zM192.328 53.535h-69.322a2.765 2.765 0 0 0 0 5.53h69.322a2.765 2.765 0 1 0 0-5.53zM192.327 73.598h-15.486a2.765 2.765 0 1 0 0 5.53h15.486a2.765 2.765 0 0 0 0-5.53zM123.006 79.128h42.772a2.765 2.765 0 0 0 0-5.53h-42.772a2.765 2.765 0 1 0 0 5.53zM192.328 93.66h-69.322a2.765 2.765 0 1 0 0 5.53h69.322a2.765 2.765 0 0 0 0-5.53zM160.617 113.723h-37.611a2.765 2.765 0 1 0 0 5.53h37.611a2.766 2.766 0 0 0 0-5.53z" fill="#DADAE4"/><path d="M53 120.321c0 1.48 1.239 2.679 2.766 2.679s2.766-1.199 2.766-2.679c0-17.189 8.844-19.8 16.469-19.8 7.624 0 16.468 5.171 16.468 19.8 0 1.48 1.238 2.679 2.765 2.679 1.527 0 2.766-1.199 2.766-2.679 0-13.349-6.413-19.195-12.04-22.48 5.627-3.285 9.399-9.263 9.399-16.081C94.359 71.416 85.674 63 75 63c-10.675 0-19.36 8.416-19.36 18.76 0 6.818 3.774 12.796 9.4 16.08C59.416 101.127 53 104.413 53 120.322zm8.173-38.561c0-7.39 6.203-13.4 13.828-13.4 7.624 0 13.827 6.01 13.827 13.4 0 7.39-6.203 13.4-13.827 13.4-7.625 0-13.828-6.01-13.828-13.4zM229.566 162.661c0 2.124-.885 4.072-2.302 5.489-1.416 1.416-3.364 2.302-5.489 2.302H210v4.781h11.864c3.453 0 6.551-1.417 8.853-3.63 2.302-2.302 3.63-5.401 3.63-8.854V150h-4.781v12.661zM7.083 168.061c-1.417-1.416-2.302-3.364-2.302-5.489V150H0v12.661c0 3.453 1.417 6.551 3.63 8.853 2.39 2.214 5.49 3.63 8.942 3.63h11.864v-4.781H12.572c-2.125 0-4.073-.885-5.49-2.302zM230.806 3.63C228.504 1.328 225.405 0 221.952 0H210v4.78h11.864c2.125 0 4.072.886 5.489 2.303 1.417 1.416 2.302 3.364 2.302 5.49v12.66h4.781v-12.75c0-3.452-1.417-6.551-3.63-8.853zM3.63 3.63C1.328 5.932 0 9.03 0 12.484v12.66h4.78v-12.66c0-2.125.886-4.073 2.303-5.49 1.416-1.416 3.364-2.302 5.49-2.302h11.863V0H12.483C9.031 0 5.932 1.417 3.63 3.63z" fill="#DADAE4"/></svg>