<svg width="187" height="125" viewBox="0 0 187 125" fill="none" xmlns="http://www.w3.org/2000/svg"><path d="M170.115 0H16.093C7.22 0 0 7.22 0 16.095v92.81C0 117.78 7.22 125 16.093 125h154.022c8.874 0 16.094-7.22 16.094-16.095v-92.81C186.209 7.22 178.989 0 170.115 0zm10.564 108.905c0 5.825-4.74 10.564-10.564 10.564H16.093c-5.823 0-10.562-4.739-10.562-10.564v-92.81C5.53 10.27 10.27 5.53 16.093 5.53h154.022c5.824 0 10.564 4.739 10.564 10.564v92.81z" fill="#DADAE4"/><path d="M82.78 22.122H18.623a2.766 2.766 0 0 0-2.766 2.766v17.699c0 1.527 2.633 0 2.633 0s2.899 1.527 2.899 0V27.653h58.628V95.13H21.388V42.587c0-1.528-2.9 0-2.9 0s-2.632-1.528-2.632 0v55.309a2.767 2.767 0 0 0 2.766 2.766H82.78a2.767 2.767 0 0 0 2.765-2.766V24.888a2.766 2.766 0 0 0-2.766-2.766zM168.328 28.535H99.006a2.767 2.767 0 0 0 0 5.53h69.322a2.765 2.765 0 1 0 0-5.53zM168.327 48.598h-15.486a2.765 2.765 0 1 0 0 5.53h15.486a2.765 2.765 0 0 0 0-5.53zM99.006 54.128h42.772a2.765 2.765 0 0 0 0-5.53H99.006a2.765 2.765 0 1 0 0 5.53zM168.328 68.66H99.006a2.765 2.765 0 1 0 0 5.53h69.322a2.765 2.765 0 0 0 0-5.53zM136.617 88.723h-37.61a2.765 2.765 0 1 0 0 5.53h37.61a2.766 2.766 0 0 0 0-5.53z" fill="#DADAE4"/><path d="M29 95.32C29 96.8 30.239 98 31.766 98s2.766-1.2 2.766-2.68c0-17.188 8.844-19.799 16.469-19.799 7.624 0 16.468 5.171 16.468 19.8 0 1.48 1.238 2.679 2.765 2.679C71.761 98 73 96.8 73 95.32c0-13.348-6.413-19.194-12.04-22.48 5.627-3.284 9.399-9.262 9.399-16.08C70.359 46.416 61.674 38 51 38c-10.675 0-19.36 8.416-19.36 18.76 0 6.818 3.774 12.796 9.4 16.08C35.416 76.127 29 79.413 29 95.32zm8.173-38.56c0-7.39 6.203-13.4 13.828-13.4 7.624 0 13.827 6.01 13.827 13.4 0 7.39-6.203 13.4-13.827 13.4-7.625 0-13.828-6.01-13.828-13.4z" fill="#DADAE4"/></svg>