<svg width="186" height="186" viewBox="0 0 186 186" fill="none" xmlns="http://www.w3.org/2000/svg"><path d="M84 92.785C84 94.56 85.52 96 87.395 96c1.874 0 3.395-1.439 3.395-3.215 0-20.626 10.853-23.76 20.211-23.76 9.358 0 20.211 6.206 20.211 23.76 0 1.776 1.519 3.215 3.393 3.215 1.875 0 3.395-1.439 3.395-3.215 0-16.019-7.871-23.034-14.777-26.976 6.906-3.942 11.536-11.116 11.536-19.297C134.759 34.099 124.1 24 111.001 24c-13.101 0-23.76 10.1-23.76 22.512 0 8.181 4.632 15.355 11.538 19.297C91.873 69.751 84 73.695 84 92.785zm10.031-46.273c0-8.867 7.612-16.08 16.97-16.08 9.358 0 16.97 7.213 16.97 16.08 0 8.867-7.612 16.08-16.97 16.08-9.358 0-16.97-7.213-16.97-16.08z" fill="#DADAE4"/><path fill-rule="evenodd" clip-rule="evenodd" d="M35.917 0H171.77c7.852.017 14.213 6.377 14.23 14.229v70.742c-.017 7.852-6.378 14.212-14.23 14.229H72.007c1.95 8.513 6.067 31.763-1.126 52.945l-.238.576a30.313 30.313 0 0 0-2.223 7.655 15.547 15.547 0 0 0-.133 2.133L68.19 179.8a6.2 6.2 0 0 1-6.2 6.2H21.687a6.2 6.2 0 0 1-6.2-6.2v-16.938c.018-1.703-.17-3.4-.559-5.056a78.788 78.788 0 0 1-.723-3.311l-.012-.059-.003-.017a75.56 75.56 0 0 0-.725-3.291L1.683 104.905A25.69 25.69 0 0 1 .19 92.65c3.045-23.682 18.754-53.386 21.498-58.432V14.229C21.704 6.377 28.064.017 35.917 0zm0 99.2a14.127 14.127 0 0 1-8.03-2.5v.312a8.79 8.79 0 0 0 2.748 6.394 7.3 7.3 0 0 0 5.478 2.056 7.75 7.75 0 0 0 7.13-6.262h-7.326zm0-93a8.04 8.04 0 0 0-8.03 8.029v70.742A8.04 8.04 0 0 0 35.917 93h7.472V6.2h-7.472zM64.945 150.24l.145-.335c8.113-23.891.198-52.061.122-52.33a3.068 3.068 0 0 1-.122-.857V57.481a8.803 8.803 0 0 0-2.76-6.412 7.275 7.275 0 0 0-5.474-2.052 7.75 7.75 0 0 0-7.267 7.75v40.957c-.01 7.364-5.735 13.454-13.083 13.92a13.56 13.56 0 0 1-10.108-3.721 15.013 15.013 0 0 1-4.711-10.911V47.984C16.125 59.664 8.307 78.17 6.344 93.437a19.437 19.437 0 0 0 1.196 9.414c.04.115.078.23.108.351l11.832 46.395c.303 1.19.55 2.389.796 3.601a78.46 78.46 0 0 0 .683 3.125 27.2 27.2 0 0 1 .728 6.539V179.8H61.99v-3.122l.084-14.213c-.004-.999.064-1.998.201-2.989a36.309 36.309 0 0 1 2.67-9.235zM179.8 68.771V30.429a9.171 9.171 0 0 1-3.1.57 3.1 3.1 0 0 0-3.101 3.101v31a3.1 3.1 0 0 0 3.101 3.1 9.171 9.171 0 0 1 3.1.57zM83.692 93h88.078a8.04 8.04 0 0 0 8.03-8.03V77.5a3.1 3.1 0 0 0-3.1-3.1 9.3 9.3 0 0 1-9.301-9.3v-31a9.3 9.3 0 0 1 9.301-9.3 3.1 3.1 0 0 0 3.1-3.1V14.23a8.04 8.04 0 0 0-8.03-8.03H49.59v38.995a13.908 13.908 0 0 1 6.88-2.345 13.557 13.557 0 0 1 10.108 3.72A15.03 15.03 0 0 1 71.29 57.48V93h12.402z" fill="#DADAE4"/></svg>