<svg width="33" height="30" viewBox="0 0 33 30" fill="none" xmlns="http://www.w3.org/2000/svg">
<path d="M31.6247 15C31.6247 23.0772 25.0769 29.625 16.9997 29.625C8.92259 29.625 2.37476 23.0772 2.37476 15C2.37476 6.92283 8.92259 0.375 16.9997 0.375C25.0769 0.375 31.6247 6.92283 31.6247 15Z" fill="white" stroke="#7E20C8" stroke-width="0.75"/>
<path d="M25.8803 4.00704L32.8621 4L20.0601 26.2772L12.7983 26.2689L25.8803 4.00704Z" fill="url(#paint0_linear)"/>
<path fill-rule="evenodd" clip-rule="evenodd" d="M0 16.7213L3.10711 10.3663L11.0988 10.3569L14.688 16.7072L0 16.7213Z" fill="url(#paint1_linear)"/>
<path fill-rule="evenodd" clip-rule="evenodd" d="M0.00317383 16.7183L3.11028 10.3634L11.102 10.354L14.6911 16.7043L0.00317383 16.7183Z" fill="#7E20C8"/>
<path d="M20.0593 26.2768L12.7975 26.2685L7.26245 16.6989L11.0984 10.3569" fill="#7E20C8"/>
<defs>
<linearGradient id="paint0_linear" x1="22.8302" y1="4" x2="22.8302" y2="26.2772" gradientUnits="userSpaceOnUse">
<stop stop-color="#7E20C8"/>
<stop offset="1" stop-color="#58188A"/>
</linearGradient>
<linearGradient id="paint1_linear" x1="13.8677" y1="18.2853" x2="5.19522" y2="13.3426" gradientUnits="userSpaceOnUse">
<stop stop-color="#7E20C8"/>
<stop offset="0.0214" stop-color="#3C0753"/>
<stop offset="0.0723" stop-color="#480577"/>
<stop offset="0.1294" stop-color="#530497"/>
<stop offset="0.1926" stop-color="#5D03B3"/>
<stop offset="0.264" stop-color="#6402C9"/>
<stop offset="0.3473" stop-color="#6A01DA"/>
<stop offset="0.4504" stop-color="#6E00E5"/>
<stop offset="0.595" stop-color="#7000EC"/>
<stop offset="0.9963" stop-color="#7100EE"/>
</linearGradient>
</defs>
</svg>
