<svg width="35" height="47" viewBox="0 0 35 47" fill="none" xmlns="http://www.w3.org/2000/svg"><g clip-path="url(#a)" fill="#000"><path d="M10.565 10.602a.892.892 0 0 1 .747-.746c1.372-.203 2.012-.575 2.012-1.172 0-.726-.982-.989-1.72-1.123a.513.513 0 0 0-.184 1.008c.208.038.373.078.502.115a5.87 5.87 0 0 1-.76.158 1.924 1.924 0 0 0-1.611 1.61 5.857 5.857 0 0 1-.158.76 5.885 5.885 0 0 1-.158-.76 1.924 1.924 0 0 0-1.61-1.61 5.867 5.867 0 0 1-.76-.158c.184-.053.433-.109.76-.157a1.924 1.924 0 0 0 1.61-1.61c.049-.328.105-.576.158-.76.041.142.084.323.124.55a.513.513 0 0 0 1.01-.178c-.134-.762-.397-1.775-1.134-1.775-.596 0-.968.64-1.172 2.012a.892.892 0 0 1-.746.746c-1.373.204-2.012.576-2.012 1.172 0 .597.639.969 2.012 1.172.383.057.69.364.746.746.204 1.374.576 2.013 1.172 2.013.597 0 .969-.64 1.172-2.013zM33.156 14.23a.741.741 0 0 1-.62-.621c-.118-.792-.36-1.844-1.102-1.844-.742 0-.984 1.052-1.101 1.844a.741.741 0 0 1-.62.62c-.792.118-1.845.36-1.845 1.101 0 .743 1.053.984 1.844 1.101a.741.741 0 0 1 .621.62c.117.793.359 1.846 1.101 1.846s.984-1.053 1.101-1.845a.741.741 0 0 1 .62-.62c.792-.118 1.845-.36 1.845-1.102 0-.742-1.053-.983-1.844-1.1zm-.15 1.187a1.774 1.774 0 0 0-1.485 1.485 6.014 6.014 0 0 1-.087.468 6.05 6.05 0 0 1-.087-.468 1.774 1.774 0 0 0-1.485-1.485 5.963 5.963 0 0 1-.467-.087c.13-.03.285-.06.467-.086a1.774 1.774 0 0 0 1.485-1.485c.027-.183.057-.338.087-.468.03.13.06.285.087.468a1.774 1.774 0 0 0 1.484 1.485c.183.027.338.056.468.086-.13.03-.285.06-.468.087zM25.245 3.604a.502.502 0 0 1-.42-.42c-.1-.678-.312-1.578-.989-1.578-.676 0-.888.9-.988 1.578a.502.502 0 0 1-.42.42c-.678.1-1.578.312-1.578.988 0 .677.9.888 1.578.988a.502.502 0 0 1 .42.42c.1.678.312 1.578.988 1.578.677 0 .888-.9.989-1.577a.502.502 0 0 1 .42-.42c.677-.101 1.577-.313 1.577-.989 0-.676-.9-.888-1.577-.988zm-1.409 2.113a1.538 1.538 0 0 0-1.124-1.125c.551-.134.99-.573 1.124-1.125.134.552.573.991 1.125 1.125-.552.134-.99.573-1.125 1.125zM5.566 17.86a.335.335 0 0 1-.28-.28c-.056-.38-.206-1.39-.91-1.39-.703 0-.852 1.01-.909 1.39a.335.335 0 0 1-.28.28c-.38.057-1.39.206-1.39.91 0 .703 1.01.852 1.39.909.144.021.26.136.28.28.057.38.206 1.39.91 1.39.703 0 .853-1.01.909-1.39a.335.335 0 0 1 .28-.28c.38-.056 1.39-.206 1.39-.91 0-.703-1.01-.852-1.39-.909zm-1.19 1.593a1.377 1.377 0 0 0-.682-.683c.301-.137.546-.382.683-.683.136.301.38.546.683.683a1.377 1.377 0 0 0-.683.683zM17.441 13.638c.867 0 1.572-.706 1.572-1.573s-.705-1.572-1.572-1.572c-.867 0-1.572.705-1.572 1.572 0 .867.705 1.573 1.572 1.573zm0-2.12a.547.547 0 1 1-.001 1.095.547.547 0 0 1 .001-1.094zM31.736 3.145c.867 0 1.573-.706 1.573-1.573S32.603 0 31.736 0s-1.572.705-1.572 1.572c0 .867.705 1.573 1.572 1.573zm0-2.12a.547.547 0 1 1 0 1.095.547.547 0 0 1 0-1.095zM3.145 3.242c0-.867-.706-1.572-1.573-1.572S0 2.375 0 3.242c0 .867.705 1.572 1.572 1.572.867 0 1.573-.705 1.573-1.572zm-1.573.547a.548.548 0 1 1 .002-1.095.548.548 0 0 1-.002 1.095z"/></g><g clip-path="url(#b)" fill="#000"><path d="M24.357 20.006a12.142 12.142 0 0 0-9.32-.815 12.142 12.142 0 0 0-7.165 6.013 12.142 12.142 0 0 0-.815 9.319 12.143 12.143 0 0 0 6.013 7.165 12.142 12.142 0 0 0 9.319.816 12.142 12.142 0 0 0 7.166-6.014 12.142 12.142 0 0 0 .815-9.319 12.143 12.143 0 0 0-6.014-7.165zm-2.399 21.132c-5.674 1.789-11.746-1.372-13.535-7.046-1.79-5.674 1.371-11.746 7.045-13.535 5.674-1.79 11.746 1.371 13.536 7.045 1.789 5.674-1.372 11.746-7.046 13.536z"/><path d="M19.23 29.933l-1.464.462a1.587 1.587 0 0 1-1.988-1.035 1.587 1.587 0 0 1 1.035-1.988l2.926-.923a.716.716 0 0 0-.43-1.366l-1.512.477-.477-1.512a.716.716 0 0 0-1.366.43l.477 1.512-.049.016a3.02 3.02 0 0 0-1.97 3.785 3.02 3.02 0 0 0 3.785 1.97l1.463-.462a1.587 1.587 0 0 1 1.988 1.035 1.587 1.587 0 0 1-1.035 1.989l-2.926.923a.716.716 0 0 0 .43 1.366l1.513-.477.476 1.512a.716.716 0 1 0 1.366-.431l-.476-1.512.048-.015a3.02 3.02 0 0 0 1.97-3.785 3.02 3.02 0 0 0-3.785-1.97z"/></g><defs><clipPath id="a"><path fill="#fff" d="M0 0h35v35H0z"/></clipPath><clipPath id="b"><path fill="#fff" transform="rotate(-17.502 75.966 .45)" d="M0 0h24.444v24.444H0z"/></clipPath></defs></svg>