<svg width="15" height="15" viewBox="0 0 15 15" fill="none" xmlns="http://www.w3.org/2000/svg"><path d="M14.664 11.837l-2.317-2.316c-.461-.46-1.225-.446-1.703.032l-1.167 1.166c-.074-.04-.15-.082-.23-.128-.737-.408-1.746-.968-2.807-2.03C5.375 7.497 4.815 6.486 4.405 5.75l-.125-.225.783-.782.385-.386c.478-.478.492-1.242.031-1.703L3.163.336c-.46-.46-1.225-.446-1.703.032l-.653.657.018.018c-.22.279-.402.601-.538.948-.126.331-.204.647-.24.963C-.259 5.49.9 7.807 4.045 10.952c4.347 4.347 7.85 4.019 8.002 4.003.329-.04.644-.118.965-.243a3.76 3.76 0 0 0 .945-.536l.014.013.662-.648c.477-.478.49-1.242.03-1.704z" fill="#7E20C8"/></svg>