<svg width="15" height="15" viewBox="0 0 15 15" fill="none" xmlns="http://www.w3.org/2000/svg"><path d="M13.994 3.735a7.469 7.469 0 0 0-2.73-2.73A7.337 7.337 0 0 0 7.5 0C6.14 0 4.885.335 3.736 1.006a7.467 7.467 0 0 0-2.73 2.73A7.336 7.336 0 0 0 0 7.5c0 1.36.335 2.615 1.006 3.765a7.47 7.47 0 0 0 2.73 2.73A7.337 7.337 0 0 0 7.5 15c1.36 0 2.616-.335 3.765-1.006a7.467 7.467 0 0 0 2.73-2.73A7.337 7.337 0 0 0 15 7.5c0-1.36-.335-2.616-1.006-3.765zm-2.119 4.39a.6.6 0 0 1-.185.44.601.601 0 0 1-.44.185h-2.5v2.5c0 .17-.062.316-.186.44a.6.6 0 0 1-.439.185h-1.25a.6.6 0 0 1-.44-.185.601.601 0 0 1-.185-.44v-2.5h-2.5a.601.601 0 0 1-.44-.186.6.6 0 0 1-.185-.439v-1.25a.6.6 0 0 1 .186-.44.6.6 0 0 1 .439-.185h2.5v-2.5a.6.6 0 0 1 .186-.44.6.6 0 0 1 .44-.185h1.25a.6.6 0 0 1 .439.185c.123.124.185.27.185.44v2.5h2.5a.6.6 0 0 1 .44.185.6.6 0 0 1 .185.44v1.25z" fill="#7E20C8"/></svg>