<svg width="15" height="15" viewBox="0 0 15 15" fill="none" xmlns="http://www.w3.org/2000/svg"><path d="M13.03 8.291c0-.226.075-.452.075-.753 0-.302 0-.528-.075-.754l1.583-1.281c.15-.151.15-.302.075-.453l-1.507-2.638c-.075-.075-.226-.15-.452-.075l-1.885.753c-.377-.301-.829-.527-1.281-.753L9.26.377C9.337.15 9.111 0 8.96 0H5.945c-.151 0-.377.15-.377.302l-.302 2.035c-.452.15-.829.452-1.281.753l-1.81-.753c-.225-.076-.376 0-.527.15L.141 5.126c-.076.075 0 .301.15.452l1.583 1.206c0 .226-.075.452-.075.754 0 .301 0 .527.075.753L.291 9.573c-.15.15-.15.301-.075.452l1.508 2.638c.075.076.226.151.452.076l1.884-.754c.377.302.83.528 1.282.754l.301 1.96c0 .15.15.301.377.301h3.015c.15 0 .377-.15.377-.302l.301-1.96c.453-.225.905-.451 1.282-.753l1.884.754c.151.075.377 0 .453-.151l1.507-2.638c.075-.151.075-.377-.075-.453L13.03 8.291zm-5.578 1.885c-1.432 0-2.638-1.206-2.638-2.638S6.02 4.899 7.452 4.899s2.638 1.207 2.638 2.639c0 1.432-1.206 2.638-2.638 2.638z" fill="#fff"/></svg>