<svg width="31" height="31" viewBox="0 0 31 31" fill="none" xmlns="http://www.w3.org/2000/svg"><path d="M15.5 18.87a8.817 8.817 0 0 0-6.567 2.92.674.674 0 0 0 1.004.9 7.468 7.468 0 0 1 5.563-2.472c2.13 0 4.157.9 5.563 2.471a.674.674 0 1 0 1.004-.899 8.818 8.818 0 0 0-6.567-2.92z" fill="#000"/><path d="M15.5 0C6.953 0 0 6.953 0 15.5S6.953 31 15.5 31 31 24.047 31 15.5 24.047 0 15.5 0zm0 29.652c-7.803 0-14.152-6.348-14.152-14.152 0-7.804 6.349-14.152 14.152-14.152 7.803 0 14.152 6.348 14.152 14.152 0 7.804-6.349 14.152-14.152 14.152z" fill="#000"/><path d="M23.587 10.782a.674.674 0 0 0-.674.674 2.024 2.024 0 0 1-2.022 2.022 2.024 2.024 0 0 1-2.022-2.022.674.674 0 1 0-1.348 0 3.373 3.373 0 0 0 3.37 3.37 3.373 3.373 0 0 0 3.37-3.37.674.674 0 0 0-.674-.674zM13.478 11.456a.674.674 0 1 0-1.347 0 2.024 2.024 0 0 1-2.022 2.022 2.024 2.024 0 0 1-2.022-2.022.674.674 0 1 0-1.348 0 3.373 3.373 0 0 0 3.37 3.37 3.373 3.373 0 0 0 3.37-3.37z" fill="#000"/></svg>