<svg width="31" height="31" viewBox="0 0 31 31" fill="none" xmlns="http://www.w3.org/2000/svg"><path d="M22.015 19.041a.674.674 0 0 0-.952.053 7.465 7.465 0 0 1-5.563 2.47c-2.13 0-4.158-.9-5.563-2.47a.674.674 0 1 0-1.004.899 8.816 8.816 0 0 0 6.567 2.92 8.817 8.817 0 0 0 6.567-2.92.674.674 0 0 0-.052-.952z" fill="#000"/><path d="M15.5 0C6.953 0 0 6.953 0 15.5S6.953 31 15.5 31 31 24.047 31 15.5 24.047 0 15.5 0zm0 29.652c-7.804 0-14.152-6.348-14.152-14.152 0-7.804 6.348-14.152 14.152-14.152 7.804 0 14.152 6.348 14.152 14.152 0 7.804-6.348 14.152-14.152 14.152z" fill="#000"/><path d="M20.892 10.782a3.373 3.373 0 0 0-3.37 3.37.674.674 0 0 0 1.348 0c0-1.115.907-2.022 2.021-2.022 1.115 0 2.022.907 2.022 2.022a.674.674 0 0 0 1.348 0 3.373 3.373 0 0 0-3.37-3.37zM12.13 14.152a.674.674 0 0 0 1.348 0 3.373 3.373 0 0 0-3.37-3.37 3.373 3.373 0 0 0-3.369 3.37.674.674 0 0 0 1.348 0c0-1.115.907-2.022 2.022-2.022 1.114 0 2.022.907 2.022 2.022z" fill="#000"/></svg>