<svg width="31" height="31" viewBox="0 0 31 31" fill="none" xmlns="http://www.w3.org/2000/svg">
<path d="M22.0147 19.0415C21.7371 18.7928 21.3105 18.8171 21.0632 19.0941C19.6574 20.665 17.6302 21.5653 15.5 21.5653C13.3704 21.5653 11.3426 20.665 9.93685 19.0941C9.68817 18.8171 9.26293 18.7928 8.98528 19.0415C8.70763 19.2895 8.68472 19.7154 8.93272 19.9931C10.5939 21.849 12.9877 22.9132 15.5 22.9132C18.013 22.9132 20.4068 21.8484 22.0673 19.9931C22.3153 19.7154 22.2917 19.2895 22.0147 19.0415Z" fill="black"/>
<path d="M15.5 0C6.95343 0 0 6.95343 0 15.5C0 24.0466 6.95343 31 15.5 31C24.0466 31 31 24.0466 31 15.5C31 6.95343 24.0466 0 15.5 0ZM15.5 29.6522C7.69609 29.6522 1.34783 23.3039 1.34783 15.5C1.34783 7.69609 7.69609 1.34783 15.5 1.34783C23.3039 1.34783 29.6522 7.69609 29.6522 15.5C29.6522 23.3039 23.3039 29.6522 15.5 29.6522Z" fill="black"/>
<path d="M20.8913 10.7827C19.0333 10.7827 17.5217 12.2943 17.5217 14.1523C17.5217 14.5243 17.8237 14.8262 18.1957 14.8262C18.5677 14.8262 18.8696 14.5243 18.8696 14.1523C18.8696 13.0376 19.7767 12.1305 20.8913 12.1305C22.006 12.1305 22.913 13.0376 22.913 14.1523C22.913 14.5243 23.215 14.8262 23.587 14.8262C23.959 14.8262 24.2609 14.5243 24.2609 14.1523C24.2609 12.2943 22.7493 10.7827 20.8913 10.7827Z" fill="black"/>
<path d="M12.1304 14.1523C12.1304 14.5243 12.4324 14.8262 12.8044 14.8262C13.1764 14.8262 13.4783 14.5243 13.4783 14.1523C13.4783 12.2943 11.9667 10.7827 10.1087 10.7827C8.25072 10.7827 6.73914 12.2943 6.73914 14.1523C6.73914 14.5243 7.04105 14.8262 7.41305 14.8262C7.78505 14.8262 8.08696 14.5243 8.08696 14.1523C8.08696 13.0376 8.99405 12.1305 10.1087 12.1305C11.2234 12.1305 12.1304 13.0376 12.1304 14.1523Z" fill="black"/>
</svg>
