<svg width="12" height="8" viewBox="0 0 12 8" fill="none" xmlns="http://www.w3.org/2000/svg">
<path d="M5.4375 7.625L0.65625 2.84375C0.492188 2.67969 0.410156 2.48047 0.410156 2.24609C0.410156 2.01172 0.492188 1.8125 0.65625 1.64844L1.46484 0.875C1.62891 0.710937 1.82812 0.628906 2.0625 0.628906C2.29688 0.628906 2.49609 0.710937 2.66016 0.875L6.03516 4.25L9.41016 0.875C9.57422 0.710937 9.77344 0.628906 10.0078 0.628906C10.2422 0.628906 10.4414 0.710937 10.6055 0.875L11.4141 1.64844C11.5781 1.8125 11.6602 2.01172 11.6602 2.24609C11.6602 2.48047 11.5781 2.67969 11.4141 2.84375L6.63281 7.625C6.46875 7.78906 6.26953 7.87109 6.03516 7.87109C5.80078 7.87109 5.60156 7.78906 5.4375 7.625Z" fill="white"/>
</svg>
