<svg width="15" height="13" viewBox="0 0 15 13" fill="none" xmlns="http://www.w3.org/2000/svg"><path d="M13.274 6.398a6.023 6.023 0 1 1-12.046 0 6.023 6.023 0 0 1 12.046 0z" fill="#fff" stroke="#7E20C8" stroke-width=".75"/><path d="M11.039 1.71l2.978-.004-5.46 9.502-3.098-.004 5.58-9.495z" fill="url(#a)"/><path fill-rule="evenodd" clip-rule="evenodd" d="M0 7.133l1.325-2.711 3.409-.004 1.53 2.709L0 7.133z" fill="#7E20C8"/><path fill-rule="evenodd" clip-rule="evenodd" d="M.001 7.13l1.326-2.71 3.408-.004 1.531 2.709-6.265.006z" fill="#7E20C8"/><path d="M8.556 11.208l-3.097-.003-2.361-4.082 1.636-2.705" fill="#7E20C8"/><defs><linearGradient id="a" x1="9.738" y1="1.706" x2="9.738" y2="11.208" gradientUnits="userSpaceOnUse"><stop stop-color="#6E1DAD"/><stop offset="1" stop-color="#58188A"/></linearGradient></defs></svg>