<svg width="15" height="13" viewBox="0 0 15 13" fill="none" xmlns="http://www.w3.org/2000/svg">
<path d="M13.2741 6.39802C13.2741 9.72444 10.5775 12.421 7.25104 12.421C3.92462 12.421 1.22803 9.72444 1.22803 6.39802C1.22803 3.0716 3.92462 0.375 7.25104 0.375C10.5775 0.375 13.2741 3.0716 13.2741 6.39802Z" fill="white" stroke="#7E20C8" stroke-width="0.75"/>
<path d="M11.0389 1.70906L14.0169 1.70605L8.55636 11.208L5.45898 11.2045L11.0389 1.70906Z" fill="url(#paint0_linear)"/>
<path fill-rule="evenodd" clip-rule="evenodd" d="M0 7.13257L1.32529 4.42197L4.73403 4.41797L6.26492 7.12658L0 7.13257Z" fill="#7E20C8"/>
<path fill-rule="evenodd" clip-rule="evenodd" d="M0.0012207 7.13062L1.32651 4.42002L4.73525 4.41602L6.26614 7.12463L0.0012207 7.13062Z" fill="#7E20C8"/>
<path d="M8.55619 11.2083L5.45881 11.2048L3.0979 7.12303L4.73405 4.41797" fill="#7E20C8"/>
<defs>
<linearGradient id="paint0_linear" x1="9.73793" y1="1.70605" x2="9.73793" y2="11.208" gradientUnits="userSpaceOnUse">
<stop stop-color="#6E1DAD"/>
<stop offset="1" stop-color="#58188A"/>
</linearGradient>
</defs>
</svg>
