<svg width="24" height="22" viewBox="0 0 24 22" fill="none" xmlns="http://www.w3.org/2000/svg">
<path d="M19.3569 5.74588C19.1024 4.23355 18.3535 2.85336 17.2083 1.80599C15.9358 0.64115 14.2815 0 12.5587 0C11.2275 0 9.93049 0.381754 8.81948 1.10121C7.89447 1.69831 7.12607 2.50587 6.5828 3.45536C6.34788 3.41131 6.10316 3.38684 5.85845 3.38684C3.77838 3.38684 2.08496 5.08026 2.08496 7.16033C2.08496 7.42951 2.11433 7.68891 2.16327 7.94341C0.817344 8.92227 0 10.4982 0 12.177C0 13.5327 0.50411 14.8492 1.42423 15.8917C2.36883 16.9587 3.61687 17.59 4.94811 17.6634C4.9628 17.6634 4.97258 17.6634 4.98727 17.6634H9.19634C9.56341 17.6634 9.85707 17.3698 9.85707 17.0027C9.85707 16.6356 9.56341 16.342 9.19634 16.342H5.00684C3.00509 16.2196 1.32145 14.3158 1.32145 12.1721C1.32145 10.787 2.06538 9.4949 3.26448 8.79502C3.54346 8.6335 3.66092 8.2958 3.55324 7.99235C3.45536 7.72806 3.40642 7.44909 3.40642 7.15054C3.40642 5.79972 4.50763 4.69851 5.85845 4.69851C6.14721 4.69851 6.43108 4.74745 6.69537 4.84533C7.01839 4.9628 7.37567 4.81597 7.5225 4.50763C8.43773 2.5646 10.415 1.31167 12.5636 1.31167C15.4512 1.31167 17.8347 3.47494 18.1088 6.34298C18.1382 6.64153 18.3633 6.88135 18.657 6.9303C20.8349 7.30226 22.4794 9.31381 22.4794 11.6092C22.4794 14.0417 20.5657 16.156 18.2067 16.3371H14.5996C14.2326 16.3371 13.9389 16.6308 13.9389 16.9978C13.9389 17.3649 14.2326 17.6586 14.5996 17.6586H18.2312C18.2459 17.6586 18.2605 17.6586 18.2801 17.6586C19.7729 17.5509 21.1677 16.8657 22.2053 15.7204C23.238 14.5849 23.8009 13.1264 23.8009 11.6092C23.796 8.86353 21.9215 6.42129 19.3569 5.74588Z" fill="white"/>
<path d="M15.8672 12.8038C16.1266 12.5444 16.1266 12.1284 15.8672 11.869L12.3678 8.3696C12.2454 8.24724 12.0741 8.17383 11.9028 8.17383C11.7315 8.17383 11.5602 8.24235 11.4379 8.3696L7.93844 11.869C7.67905 12.1284 7.67905 12.5444 7.93844 12.8038C8.0657 12.9311 8.23699 12.9996 8.4034 12.9996C8.56981 12.9996 8.74111 12.936 8.86836 12.8038L11.2421 10.4301V21.3394C11.2421 21.7065 11.5357 22.0002 11.9028 22.0002C12.2699 22.0002 12.5635 21.7065 12.5635 21.3394V10.4301L14.9373 12.8038C15.1918 13.0632 15.6078 13.0632 15.8672 12.8038Z" fill="white"/>
</svg>
