<svg width="30" height="30" viewBox="0 0 30 30" fill="none" xmlns="http://www.w3.org/2000/svg"><path d="M29.625 15c0 8.077-6.548 14.625-14.625 14.625S.375 23.077.375 15 6.923.375 15 .375 29.625 6.923 29.625 15z" fill="#fff" stroke="#7E20C8" stroke-width=".75"/><path fill-rule="evenodd" clip-rule="evenodd" d="M22.694 8.764l-1.36-1.368a1.346 1.346 0 0 0-1.908 0l-1.304 1.31 3.052 3.067 1.52-1.528c.408-.41.408-1.071 0-1.481zm-5.367.74l3.052 3.066-7.724 7.761-3.05-3.066 7.722-7.762zM8.43 21.99a.348.348 0 0 1-.42-.415l.77-3.48 3.05 3.066-3.4.829z" fill="#7E20C8"/></svg>