<svg width="26" height="26" viewBox="0 0 26 26" fill="none" xmlns="http://www.w3.org/2000/svg"><path fill-rule="evenodd" clip-rule="evenodd" d="M8.188 4.75a.688.688 0 1 0 0 1.376.688.688 0 0 0 0-1.376zm2.75 0a.688.688 0 1 0 0 1.376.688.688 0 0 0 0-1.376zM22.624 7.5H3.375V4.75c0-.759.616-1.375 1.375-1.375h16.5c.759 0 1.375.616 1.375 1.375V7.5zm0 13.75c0 .759-.616 1.375-1.375 1.375H4.75a1.376 1.376 0 0 1-1.375-1.375V8.875h19.25V21.25zM21.25 2H4.75A2.75 2.75 0 0 0 2 4.75v16.5A2.75 2.75 0 0 0 4.75 24h16.5A2.75 2.75 0 0 0 24 21.25V4.75A2.75 2.75 0 0 0 21.25 2zM5.437 4.75a.688.688 0 1 0 .001 1.376.688.688 0 0 0 0-1.376z" fill="#131314"/></svg>