<svg width="32" height="32" viewBox="0 0 32 32" fill="none" xmlns="http://www.w3.org/2000/svg"><path d="M31 20.452c0-.448-.263-.822-.638-1.007v-6.943a.211.211 0 0 0 .137-.202.212.212 0 0 0-.141-.198L16.033 7.049a.848.848 0 0 0-.568 0L1.142 12.102a.213.213 0 1 0-.006.4L15.44 18.07c.199.077.419.077.618 0l13.316-5.186v6.56c-.374.184-.637.561-.637 1.006 0 .464.283.867.688 1.04-.405.8-.688 2.441-.688 2.91a1.131 1.131 0 0 0 2.261 0c0-.469-.284-2.11-.688-2.91.406-.17.69-.574.69-1.038z" fill="#fff"/><path d="M5.615 15.306l.002 3.786c0 2.982 4.488 5.41 10.132 5.561 5.643-.152 10.131-2.576 10.131-5.561 0-.298 0-2.183.002-3.786l-9.826 3.825a.852.852 0 0 1-.618 0l-9.823-3.825z" fill="#fff"/></svg>