<svg width="25" height="25" viewBox="0 0 25 25" fill="none" xmlns="http://www.w3.org/2000/svg"><path d="M22.917 0h-17.5a2.086 2.086 0 0 0-2.084 2.083v20h.834v-20c0-.689.56-1.25 1.25-1.25H21.25a2.072 2.072 0 0 0-.418 1.25v20.834c0 .689-.56 1.25-1.25 1.25H3.75V25h15.833a2.086 2.086 0 0 0 2.084-2.083V2.083c0-.689.56-1.25 1.25-1.25a.417.417 0 1 0 0-.833z" fill="#fff"/><path d="M21.296 23.611l-.926.926h-1.852l-.463-2.315H3.704V1.852L4.63.462h16.666v23.149z" fill="#fff"/><path d="M18.055 22.222l.463 2.315H1.852l-.926-.463-.463-1.852h17.593z" fill="#fff"/><path d="M16.666 13.75a2.502 2.502 0 0 0-2.5 2.5c0 1.379 1.122 2.5 2.5 2.5 1.38 0 2.5-1.121 2.5-2.5s-1.12-2.5-2.5-2.5zm0 4.167c-.919 0-1.666-.748-1.666-1.667 0-.92.747-1.667 1.666-1.667.92 0 1.667.748 1.667 1.667 0 .92-.747 1.667-1.666 1.667z" fill="#DADAE4"/><path d="M17.5 17.916v1.722l-.602-.402a.415.415 0 0 0-.463 0l-.602.402v-1.722H15v2.5a.416.416 0 0 0 .648.347l1.019-.679 1.018.68a.418.418 0 0 0 .648-.348v-2.5H17.5zM15 4.167H9.584V5H15v-.833zM19.167 6.667H5.833V7.5h13.334v-.833zM15 9.166H5.833V10H15v-.834zM19.167 9.166h-2.5V10h2.5v-.834zM19.167 11.666H5.833v.834h13.334v-.834zM10.833 14.166h-5V15h5v-.834zM7.917 16.25H5.833v.833h2.084v-.833zM10.834 16.25h-1.25v.833h1.25v-.833z" fill="#DADAE4"/><path d="M22.917 0a2.086 2.086 0 0 0-2.084 2.083v.834c0 .23.187.416.417.416h3.333c.23 0 .417-.186.417-.416v-.834A2.086 2.086 0 0 0 22.917 0zm1.25 2.5h-2.5v-.417c0-.689.56-1.25 1.25-1.25.689 0 1.25.561 1.25 1.25V2.5zM19.583 24.166c-.689 0-1.25-.56-1.25-1.25v-.833a.416.416 0 0 0-.416-.416H.417a.417.417 0 0 0-.417.416v.834C0 24.064.935 25 2.083 25h17.5a.416.416 0 1 0 0-.834zm-17.5 0c-.689 0-1.25-.56-1.25-1.25V22.5H17.5v.416c0 .47.155.902.418 1.25H2.082z" fill="#fff"/></svg>