<svg width="33" height="30" viewBox="0 0 33 30" fill="none" xmlns="http://www.w3.org/2000/svg"><path d="M31.625 15c0 8.077-6.548 14.625-14.625 14.625S2.375 23.077 2.375 15 8.923.375 17 .375 31.625 6.923 31.625 15z" fill="#fff" stroke="#7E20C8" stroke-width=".75"/><path d="M25.88 4.007L32.862 4 20.06 26.277l-7.262-.008L25.88 4.007z" fill="url(#a)"/><path fill-rule="evenodd" clip-rule="evenodd" d="M0 16.721l3.107-6.355 7.992-.01 3.589 6.351L0 16.721z" fill="url(#b)"/><path fill-rule="evenodd" clip-rule="evenodd" d="M.003 16.718l3.107-6.355 7.992-.009 3.59 6.35-14.689.014z" fill="#7E20C8"/><path d="M20.06 26.277l-7.262-.009-5.536-9.57 3.836-6.341" fill="#7E20C8"/><defs><linearGradient id="a" x1="22.83" y1="4" x2="22.83" y2="26.277" gradientUnits="userSpaceOnUse"><stop stop-color="#7E20C8"/><stop offset="1" stop-color="#58188A"/></linearGradient><linearGradient id="b" x1="13.868" y1="18.285" x2="5.195" y2="13.343" gradientUnits="userSpaceOnUse"><stop stop-color="#7E20C8"/><stop offset=".021" stop-color="#3C0753"/><stop offset=".072" stop-color="#480577"/><stop offset=".129" stop-color="#530497"/><stop offset=".193" stop-color="#5D03B3"/><stop offset=".264" stop-color="#6402C9"/><stop offset=".347" stop-color="#6A01DA"/><stop offset=".45" stop-color="#6E00E5"/><stop offset=".595" stop-color="#7000EC"/><stop offset=".996" stop-color="#7100EE"/></linearGradient></defs></svg>