<svg width="43" height="44" viewBox="0 0 43 44" fill="none" xmlns="http://www.w3.org/2000/svg"><path d="M9.74 15.81a1.866 1.866 0 0 0-2.615.322.639.639 0 0 0 1.006.786c.199-.255.569-.3.824-.101a.638.638 0 0 0 .786-1.006zM16.294 15.006a1.866 1.866 0 0 0-2.616.321.638.638 0 1 0 1.006.786c.2-.255.569-.3.824-.1a.639.639 0 0 0 .786-1.007zM15.557 19.914l-.073-.594a.962.962 0 0 0-.365-.645.962.962 0 0 0-.714-.198l-3.666.45a.961.961 0 0 0-.645.365.961.961 0 0 0-.197.714l.072.594a2.818 2.818 0 0 0 3.137 2.45 2.818 2.818 0 0 0 2.45-3.136zm-2.607 1.869a1.54 1.54 0 0 1-1.713-1.34l-.036-.286 3.053-.375.036.287a1.54 1.54 0 0 1-1.34 1.714z" fill="#000"/><path d="M20.17 2.943A5.638 5.638 0 0 0 17.086.045a.638.638 0 0 0-.803.302c-.687 1.336-2.346 2.288-4.438 2.545l-3.692.453a.638.638 0 1 0 .156 1.267L12 4.159c2.247-.276 4.104-1.27 5.101-2.702 2.08 1.11 2.586 3.44 2.36 5.19-.234 1.82-1.191 3.189-2.327 3.328L4.714 11.5a1.886 1.886 0 0 0-1.64 2.1l.152 1.243-.968.118-.97-7.897A1.567 1.567 0 0 1 1.612 5.9c.26-.332.633-.543 1.051-.595l3.099-.38a.638.638 0 0 0-.156-1.267l-3.098.38A2.857 2.857 0 0 0 .02 7.22l1.003 8.164a2.21 2.21 0 0 0-.91 2.065 2.208 2.208 0 0 0 2.458 1.921l1.192-.147.117.951a7.47 7.47 0 0 0 2.833 5.009 7.46 7.46 0 0 0 5.544 1.538 7.483 7.483 0 0 0 4.841-2.628.639.639 0 0 0-.977-.82 6.211 6.211 0 0 1-4.02 2.18A6.2 6.2 0 0 1 7.5 24.177a6.201 6.201 0 0 1-2.352-4.158l-.195-1.585a.638.638 0 0 0-.712-.556l-1.822.225a.93.93 0 0 1-.469-1.783l.003-.001a.92.92 0 0 1 .237-.062l1.825-.224a.638.638 0 0 0 .556-.711l-.23-1.877a.608.608 0 0 1 .528-.677l11.787-1.447.881 7.177a6.18 6.18 0 0 1-.277 2.751.638.638 0 0 0 1.21.408 7.445 7.445 0 0 0 .334-3.315l-.89-7.247c1.441-.513 2.538-2.146 2.813-4.283.174-1.351-.024-2.725-.557-3.868zM34.97 32.935a1.866 1.866 0 0 0-2.617-.321.638.638 0 0 0 .786 1.006.588.588 0 0 1 .824.1.637.637 0 1 0 1.006-.785zM28.416 32.13a1.866 1.866 0 0 0-2.616-.321.638.638 0 0 0 .786 1.006.588.588 0 0 1 .824.101.637.637 0 1 0 1.006-.786zM31.355 35.73l-3.666-.45a.963.963 0 0 0-.714.198c-.459.358-.352.84-.438 1.238-.307 2.5 2.572 4.088 4.527 2.561 1.175-.918 1.057-2.183 1.133-2.468a.969.969 0 0 0-.842-1.079zm-1.077 2.541a1.537 1.537 0 0 1-2.473-1.4l.035-.286 3.052.375c-.037.135.02.816-.614 1.311z" fill="#000"/><path d="M41.489 21.916a2.835 2.835 0 0 0-1.902-1.075l-8.772-1.077a1.196 1.196 0 0 1-.821-.488 5.554 5.554 0 0 0-2.389-1.891.638.638 0 0 0-.487 1.18 4.278 4.278 0 0 1 1.84 1.457 2.477 2.477 0 0 0 1.702 1.009l8.772 1.077a1.58 1.58 0 0 1 1.373 1.758l-.97 7.898-.967-.119.153-1.243a1.886 1.886 0 0 0-1.64-2.1l-12.422-1.524a4.248 4.248 0 0 1-2.904-1.681 4.253 4.253 0 0 1-.802-3.263 4.305 4.305 0 0 1 3.723-3.563.638.638 0 0 0-.152-1.268 5.587 5.587 0 0 0-4.83 4.627 5.52 5.52 0 0 0 1.04 4.233 5.507 5.507 0 0 0 3.141 2.067l-.886 7.214a7.481 7.481 0 0 0 .195 2.848.639.639 0 0 0 1.234-.328 6.21 6.21 0 0 1-.162-2.365l.882-7.176 11.787 1.447c.332.04.569.344.528.676l-.23 1.877a.64.64 0 0 0 .556.712l1.825.224a.923.923 0 0 1 .81 1.036.93.93 0 0 1-1.037.81l-1.825-.225a.638.638 0 0 0-.711.556l-.195 1.585a6.201 6.201 0 0 1-2.353 4.157 6.198 6.198 0 0 1-4.602 1.277 6.22 6.22 0 0 1-4.27-2.501.638.638 0 0 0-1.03.756 7.492 7.492 0 0 0 5.144 3.012 7.46 7.46 0 0 0 5.544-1.538 7.47 7.47 0 0 0 2.834-5.008l.117-.951c1.14.135 1.228.163 1.462.163a2.208 2.208 0 0 0 1.278-4.005l1.002-8.161a2.834 2.834 0 0 0-.583-2.105zM32.451 5.354a.638.638 0 0 0-.638.639v1.563a.638.638 0 0 0 1.277 0V5.993a.638.638 0 0 0-.639-.639zM32.451 10.159a.638.638 0 0 0-.638.638v1.563a.638.638 0 1 0 1.277 0v-1.563a.638.638 0 0 0-.639-.638zM35.634 8.539h-1.563a.638.638 0 1 0 0 1.276h1.563a.638.638 0 1 0 0-1.276zM30.83 8.539h-1.562a.638.638 0 1 0 0 1.276h1.562a.638.638 0 1 0 0-1.276zM9.643 30.581a.638.638 0 0 0-.639.638v1.563a.638.638 0 0 0 1.277 0V31.22a.638.638 0 0 0-.638-.638zM9.643 35.384a.638.638 0 0 0-.639.639v1.562a.638.638 0 0 0 1.277 0v-1.562a.638.638 0 0 0-.638-.639zM12.826 33.764h-1.563a.638.638 0 1 0 0 1.277h1.563a.638.638 0 1 0 0-1.277zM8.022 33.764H6.46a.638.638 0 1 0 0 1.277h1.562a.638.638 0 1 0 0-1.277z" fill="#000"/></svg>