<svg width="235" height="176" viewBox="0 0 235 176" fill="none" xmlns="http://www.w3.org/2000/svg"><path d="M229.566 162.661c0 2.124-.885 4.072-2.302 5.489-1.416 1.416-3.364 2.302-5.489 2.302H210v4.781h11.864c3.453 0 6.551-1.417 8.853-3.63 2.302-2.302 3.63-5.401 3.63-8.854V150h-4.781v12.661zM7.083 168.061c-1.417-1.416-2.302-3.364-2.302-5.489V150H0v12.661c0 3.453 1.417 6.551 3.63 8.853 2.39 2.214 5.49 3.63 8.942 3.63h11.864v-4.781H12.572c-2.125 0-4.073-.885-5.49-2.302zM230.806 3.63C228.504 1.328 225.405 0 221.952 0H210v4.78h11.864c2.125 0 4.072.886 5.489 2.303 1.417 1.416 2.302 3.364 2.302 5.49v12.66h4.781v-12.75c0-3.452-1.417-6.551-3.63-8.853zM3.63 3.63C1.328 5.932 0 9.03 0 12.484v12.66h4.78v-12.66c0-2.125.886-4.073 2.303-5.49 1.416-1.416 3.364-2.302 5.49-2.302h11.863V0H12.483C9.031 0 5.932 1.417 3.63 3.63z" fill="#DADAE4"/><path d="M162 145.088c0 2.714-2.252 4.912-5.029 4.912s-5.029-2.198-5.029-4.912c0-31.512-16.08-36.299-29.943-36.299-13.863 0-29.943 9.48-29.943 36.299 0 2.714-2.25 4.912-5.027 4.912S82 147.802 82 145.088c0-24.473 11.66-35.191 21.892-41.213-10.232-6.023-17.09-16.982-17.09-29.482C86.802 55.43 102.592 40 122 40c19.409 0 35.199 15.43 35.199 34.393 0 12.5-5.672 23.46-15.904 29.482 8.941 4.914 20.706 12.048 20.706 41.213zm-14.861-70.695c0-13.547-11.277-24.567-25.14-24.567-13.863 0-25.14 11.02-25.14 24.567s11.277 24.567 25.14 24.567c13.863 0 25.14-11.02 25.14-24.567z" fill="#DADAE4" stroke="#fff" stroke-width="5"/><path d="M188.061 111h-49.94a6.128 6.128 0 0 0-6.121 6.121v26.661a6.128 6.128 0 0 0 6.121 6.121h49.94a6.128 6.128 0 0 0 6.121-6.121v-26.661a6.128 6.128 0 0 0-6.121-6.121z" fill="#fff"/><path d="M188.061 110.6h-49.94a6.528 6.528 0 0 0-6.521 6.521v26.661a6.528 6.528 0 0 0 6.521 6.521h49.94a6.528 6.528 0 0 0 6.521-6.521v-26.661a6.528 6.528 0 0 0-6.521-6.521zm3.617 33.182a3.622 3.622 0 0 1-3.617 3.618h-49.94a3.623 3.623 0 0 1-3.618-3.618v-26.661a3.623 3.623 0 0 1 3.618-3.618h49.94a3.622 3.622 0 0 1 3.617 3.618v26.661z" fill="#DADAE4" stroke="#DADAE4" stroke-width=".8"/><path d="M143.6 144.708c0 .796.662 1.419 1.452 1.419.79 0 1.452-.623 1.452-1.419 0-3.205.824-4.956 1.909-5.917 1.094-.968 2.539-1.213 3.954-1.213 1.363 0 2.822.462 3.938 1.564 1.112 1.096 1.925 2.868 1.925 5.566 0 .796.662 1.419 1.452 1.419.789 0 1.452-.623 1.452-1.419 0-2.606-.627-4.509-1.552-5.928-.771-1.184-1.737-2.012-2.677-2.628 1.948-1.367 3.224-3.593 3.224-6.109 0-4.167-3.494-7.535-7.762-7.535-4.269 0-7.762 3.368-7.762 7.535 0 2.51 1.27 4.731 3.21 6.099-.91.538-1.88 1.179-2.653 2.258-.941 1.314-1.562 3.231-1.562 6.308zm3.908-14.665c0-2.578 2.168-4.696 4.859-4.696s4.859 2.118 4.859 4.696c0 2.577-2.168 4.696-4.859 4.696s-4.859-2.119-4.859-4.696z" fill="#DADAE4" stroke="#DADAE4" stroke-width=".8"/><path d="M182.869 123h-14.738c-1.453 0-2.131.895-2.131 1.999 0 1.105.678 2.001 2.131 2.001h14.738c1.453 0 2.131-.896 2.131-2.001 0-1.104-.678-1.999-2.131-1.999zM182.869 131h-14.738c-1.453 0-2.131.895-2.131 1.999 0 1.105.678 2.001 2.131 2.001h14.738c1.453 0 2.131-.896 2.131-2.001 0-1.104-.678-1.999-2.131-1.999z" fill="#DADAE4"/></svg>