<svg width="15" height="15" viewBox="0 0 15 15" fill="none" xmlns="http://www.w3.org/2000/svg"><path d="M7.5 14.256a6.749 6.749 0 0 0 6.744-6.744A6.75 6.75 0 0 0 7.5.767C3.78.767.744 3.791.744 7.512c0 3.72 3.035 6.744 6.756 6.744zm0-12.558A5.811 5.811 0 0 1 13.303 7.5 5.811 5.811 0 0 1 7.5 13.302 5.811 5.811 0 0 1 1.698 7.5 5.811 5.811 0 0 1 7.5 1.698z" fill="#000"/><path d="M6.372 10.477a.472.472 0 0 0-.476.476c0 .268.209.477.476.477H9.5c.268 0 .477-.21.477-.477a.472.472 0 0 0-.477-.476H8.407V6.279a.472.472 0 0 0-.477-.477H6.372a.472.472 0 0 0-.476.477c0 .267.209.477.476.477h1.093v3.72H6.372zM7.29 5.011a.767.767 0 1 0 0-1.534.767.767 0 0 0 0 1.534z" fill="#000"/></svg>