<svg width="25" height="24" viewBox="0 0 25 24" fill="none" xmlns="http://www.w3.org/2000/svg">
<path d="M22.7385 0H2.26145C1.0125 0 0 0.972 0 2.17099V21.8289C0 23.028 1.0125 24 2.26145 24H22.7385C23.9875 24 25 23.028 25 21.8289V2.17099C25 0.972 23.9875 0 22.7385 0ZM7.73606 20.7232C7.73606 21.0721 7.44143 21.355 7.07795 21.355H4.27651C3.91302 21.355 3.61839 21.0721 3.61839 20.7232V9.4494C3.61839 9.10046 3.91302 8.81761 4.27651 8.81761H7.07795C7.44143 8.81761 7.73606 9.10046 7.73606 9.4494V20.7232ZM5.67723 7.75489C4.2074 7.75489 3.01584 6.61099 3.01584 5.19996C3.01584 3.78892 4.2074 2.64503 5.67723 2.64503C7.14706 2.64503 8.33861 3.78892 8.33861 5.19996C8.33861 6.61099 7.14712 7.75489 5.67723 7.75489ZM22.3763 20.7741C22.3763 21.0949 22.1054 21.355 21.7712 21.355H18.7651C18.4309 21.355 18.1599 21.0949 18.1599 20.7741V15.486C18.1599 14.6972 18.401 12.0292 16.0125 12.0292C14.1598 12.0292 13.784 13.8553 13.7086 14.6749V20.7741C13.7086 21.0949 13.4377 21.355 13.1035 21.355H10.196C9.86185 21.355 9.5909 21.0949 9.5909 20.7741V9.39851C9.5909 9.07772 9.86185 8.81761 10.196 8.81761H13.1035C13.4376 8.81761 13.7086 9.07772 13.7086 9.39851V10.3821C14.3955 9.39236 15.4165 8.62844 17.5902 8.62844C22.4039 8.62844 22.3763 12.9457 22.3763 15.3178V20.7741Z" fill="#0077B7"/>
</svg>
