<svg width="25" height="24" viewBox="0 0 25 24" fill="none" xmlns="http://www.w3.org/2000/svg"><path d="M2.876 5.865A2.88 2.88 0 0 0 5.752 2.99 2.88 2.88 0 0 0 2.876.113 2.88 2.88 0 0 0 0 2.99a2.88 2.88 0 0 0 2.876 2.876zM.283 9.982v5.973a2.484 2.484 0 0 0 2.484 2.484h3.237v4.41c0 .337.273.61.609.61H9.48a.608.608 0 0 0 .609-.61v-6.362a2.097 2.097 0 0 0-2.097-2.097H5.468V9.982a2.592 2.592 0 0 0-5.185 0zM22.124 5.865A2.88 2.88 0 0 0 25 2.99 2.88 2.88 0 0 0 22.124.113a2.88 2.88 0 0 0-2.876 2.876 2.88 2.88 0 0 0 2.876 2.876zM19.532 9.982v4.408h-2.525a2.097 2.097 0 0 0-2.097 2.097v6.363c0 .336.272.608.609.608h2.868a.609.609 0 0 0 .609-.608v-4.411h3.237a2.484 2.484 0 0 0 2.484-2.484V9.982a2.592 2.592 0 0 0-5.185 0z" fill="#7E20C8"/><path d="M16.803 11.5a.739.739 0 1 0 0-1.477H8.197a.739.739 0 1 0 0 1.477h3.564v11.481a.739.739 0 1 0 1.478 0v-11.48h3.564z" fill="#7E20C8"/></svg>