<svg width="50" height="50" viewBox="0 0 50 50" fill="none" xmlns="http://www.w3.org/2000/svg"><path d="M39.516 30.973c-1.024-1.066-2.258-1.636-3.567-1.636-1.298 0-2.543.56-3.61 1.625l-3.334 3.324c-.274-.147-.549-.285-.812-.422-.38-.19-.74-.37-1.045-.56-3.124-1.983-5.962-4.569-8.685-7.914-1.32-1.667-2.206-3.07-2.85-4.495.866-.792 1.668-1.615 2.449-2.406.295-.296.59-.602.886-.897 2.216-2.216 2.216-5.087 0-7.303l-2.88-2.88a43.877 43.877 0 0 1-.982-1.003 49.799 49.799 0 0 0-1.984-1.963c-1.024-1.013-2.248-1.551-3.535-1.551-1.288 0-2.533.538-3.588 1.55l-.021.022-3.588 3.62C1.019 9.434.249 11.08.08 12.99c-.253 3.081.654 5.951 1.35 7.83 1.71 4.611 4.264 8.885 8.073 13.465 4.623 5.52 10.184 9.878 16.537 12.949 2.427 1.15 5.667 2.511 9.286 2.743.222.011.454.021.665.021 2.438 0 4.485-.875 6.09-2.617.01-.02.03-.031.041-.052.55-.665 1.182-1.267 1.847-1.91.454-.433.918-.887 1.372-1.362 1.045-1.087 1.593-2.353 1.593-3.651 0-1.309-.559-2.564-1.625-3.62l-5.793-5.814zm3.778 11.112c-.01 0-.01.01 0 0-.412.443-.834.844-1.288 1.287-.686.655-1.382 1.34-2.037 2.11-1.065 1.14-2.321 1.679-3.967 1.679-.159 0-.328 0-.486-.01-3.134-.201-6.046-1.425-8.231-2.47-5.973-2.892-11.218-6.997-15.576-12.2-3.598-4.336-6.005-8.347-7.598-12.652-.981-2.628-1.34-4.675-1.182-6.606.106-1.235.58-2.259 1.456-3.134L7.984 6.49c.517-.485 1.066-.75 1.604-.75.665 0 1.203.402 1.54.74l.032.031a53.278 53.278 0 0 1 1.9 1.89c.327.337.665.675 1.002 1.023l2.881 2.88c1.119 1.12 1.119 2.153 0 3.272-.306.306-.601.612-.907.908-.887.907-1.731 1.751-2.65 2.575-.02.02-.041.031-.052.052-.907.908-.739 1.794-.549 2.396l.032.095c.75 1.815 1.805 3.524 3.409 5.561l.01.01c2.913 3.589 5.984 6.385 9.371 8.527.433.275.876.496 1.298.707.38.19.739.37 1.045.56.042.02.084.053.127.074.358.179.696.263 1.044.263.876 0 1.425-.548 1.604-.728l3.61-3.609c.358-.359.928-.791 1.593-.791.654 0 1.192.411 1.52.77l.02.021 5.815 5.815c1.087 1.076 1.087 2.184.01 3.303zM27.021 11.893c2.765.465 5.276 1.773 7.282 3.778a13.452 13.452 0 0 1 3.777 7.282 1.416 1.416 0 0 0 1.404 1.182c.084 0 .158-.01.243-.021a1.426 1.426 0 0 0 1.171-1.646 16.276 16.276 0 0 0-4.57-8.812 16.276 16.276 0 0 0-8.811-4.57 1.432 1.432 0 0 0-1.646 1.161 1.41 1.41 0 0 0 1.15 1.646zM49.942 22.056c-.94-5.509-3.535-10.521-7.524-14.51-3.99-3.99-9.002-6.585-14.51-7.524-.77-.137-1.499.39-1.636 1.16-.127.781.39 1.51 1.171 1.647 4.918.833 9.403 3.166 12.97 6.722 3.567 3.567 5.888 8.052 6.722 12.97a1.416 1.416 0 0 0 1.404 1.181c.084 0 .158-.01.242-.02a1.398 1.398 0 0 0 1.161-1.626z" fill="#DADAE4"/></svg>