<svg width="21" height="22" viewBox="0 0 21 22" fill="none" xmlns="http://www.w3.org/2000/svg"><path d="M17.013 14.134a4.004 4.004 0 0 0-3.155 1.535l-6.12-3.376c.144-.407.223-.845.223-1.298 0-.456-.08-.89-.227-1.301l6.115-3.372a3.994 3.994 0 0 0 3.16 1.544c2.192 0 3.982-1.763 3.982-3.933S19.205 0 17.008 0s-3.982 1.763-3.982 3.933c0 .457.078.895.226 1.302l-6.11 3.371a3.98 3.98 0 0 0-3.16-1.544C1.79 7.062 0 8.826 0 10.995c0 2.17 1.79 3.934 3.987 3.934a4 4 0 0 0 3.164-1.549l6.115 3.376a3.873 3.873 0 0 0-.231 1.31c0 2.166 1.785 3.934 3.982 3.934C19.215 22 21 20.237 21 18.067s-1.79-3.933-3.987-3.933zm0-12.896c1.508 0 2.733 1.21 2.733 2.7 0 1.489-1.225 2.7-2.733 2.7s-2.734-1.211-2.734-2.7c0-1.49 1.23-2.7 2.734-2.7zM3.987 13.695c-1.508 0-2.733-1.21-2.733-2.7 0-1.489 1.225-2.7 2.733-2.7s2.734 1.211 2.734 2.7c0 1.49-1.23 2.7-2.734 2.7zm13.026 7.067c-1.508 0-2.734-1.21-2.734-2.7 0-1.489 1.226-2.7 2.734-2.7s2.733 1.211 2.733 2.7c0 1.49-1.225 2.7-2.733 2.7z" fill="#000"/></svg>