<svg width="200" height="200" viewBox="0 0 200 200" fill="none" xmlns="http://www.w3.org/2000/svg"><path d="M100 198.75c54.538 0 98.75-44.212 98.75-98.75S154.538 1.25 100 1.25 1.25 45.462 1.25 100s44.212 98.75 98.75 98.75z" fill="#fff"/><path fill-rule="evenodd" clip-rule="evenodd" d="M100 2.5C46.152 2.5 2.5 46.152 2.5 100s43.652 97.5 97.5 97.5 97.5-43.652 97.5-97.5S153.848 2.5 100 2.5zM0 100C0 44.772 44.772 0 100 0s100 44.772 100 100-44.772 100-100 100S0 155.228 0 100z" fill="#7E20C8"/><path d="M100.5 187c48.325 0 87.5-39.175 87.5-87.5S148.825 12 100.5 12 13 51.175 13 99.5 52.175 187 100.5 187z" fill="#DADAE4"/><path d="M122.635 133.801C135.425 141.137 150 153.191 150 183l-50 6.5-50-6.5c0-35.524 14.579-41.863 27.368-49.199-12.79-7.335-21.365-20.685-21.365-35.909C56.003 74.794 75.74 56 100.002 56c24.258 0 43.995 18.794 43.995 41.892 0 15.224-8.572 28.574-21.362 35.909z" fill="#fff"/><path d="M88.536 123.096h25.632c0-13.248 23.616-16.56 23.616-39.024 0-17.568-15.84-27.072-38.016-27.072C78.6 57 64.632 65.496 57 78.312l21.456 11.52c3.744-6.48 10.224-10.368 18-10.368 7.344 0 12.672 3.456 12.672 9.216 0 10.8-20.592 15.552-20.592 34.416zm12.816 38.016c9.648 0 16.416-6.768 16.416-15.12 0-8.496-6.768-14.832-16.416-14.832s-16.272 6.336-16.272 14.832c0 8.352 6.624 15.12 16.272 15.12z" fill="#252322" fill-opacity=".3" filter="url(#a)"/><path d="M88.536 119.096h25.632c0-13.248 23.616-16.56 23.616-39.024 0-17.568-15.84-27.072-38.016-27.072C78.6 53 64.632 61.496 57 74.312l21.456 11.52c3.744-6.48 10.224-10.368 18-10.368 7.344 0 12.672 3.456 12.672 9.216 0 10.8-20.592 15.552-20.592 34.416zm12.816 38.016c9.648 0 16.416-6.768 16.416-15.12 0-8.496-6.768-14.832-16.416-14.832s-16.272 6.336-16.272 14.832c0 8.352 6.624 15.12 16.272 15.12z" fill="#fff"/><defs><filter id="a" x="52" y="52" width="90.784" height="114.112" filterUnits="userSpaceOnUse" color-interpolation-filters="sRGB"><feFlood flood-opacity="0" result="BackgroundImageFix"/><feBlend in="SourceGraphic" in2="BackgroundImageFix" result="shape"/><feGaussianBlur stdDeviation="2.5" result="effect1_foregroundBlur"/></filter></defs></svg>