<svg width="26" height="26" viewBox="0 0 26 26" fill="none" xmlns="http://www.w3.org/2000/svg"><path fill-rule="evenodd" clip-rule="evenodd" d="M18.634 19.531c0 1.709-1.64 3.094-3.66 3.094H8.871c-2.021 0-3.66-1.385-3.66-3.094V17.47c0-1.462 1.203-2.679 2.815-3.003a6.57 6.57 0 0 0 3.896 1.284 6.57 6.57 0 0 0 3.896-1.284c1.612.324 2.815 1.541 2.815 3.003v2.062zM6.704 8.875c0-3.037 2.336-5.5 5.219-5.5 2.883 0 5.22 2.463 5.22 5.5s-2.338 5.5-5.22 5.5c-2.883 0-5.22-2.463-5.22-5.5zm10.402 4.368a6.957 6.957 0 0 0 1.528-4.368C18.634 5.079 15.629 2 11.923 2 8.216 2 5.212 5.079 5.212 8.875c0 1.658.574 3.18 1.528 4.368-1.753.558-3.02 2.076-3.02 3.882v2.75C3.72 22.153 5.724 24 8.194 24h7.457c2.47 0 4.474-1.847 4.474-4.125v-2.75c0-1.806-1.267-3.324-3.02-3.882z" fill="#131314"/></svg>